<?xml version="1.0" standalone="no"?>
<!DOCTYPE svg PUBLIC "-//W3C//DTD SVG 20010904//EN"
 "http://www.w3.org/TR/2001/REC-SVG-20010904/DTD/svg10.dtd">
<svg version="1.0" xmlns="http://www.w3.org/2000/svg"
 width="870.000000pt" height="870.000000pt" viewBox="0 0 870.000000 870.000000"
 preserveAspectRatio="xMidYMid meet">
<metadata>
Created by potrace 1.14, written by Peter Selinger 2001-2017
</metadata>
<g transform="translate(0.000000,870.000000) scale(0.100000,-0.100000)"
fill="#000000" stroke="none">
<path d="M3880 7233 c0 -925 -4 -1387 -11 -1448 -68 -556 -427 -930 -979
-1021 -91 -14 -215 -17 -948 -21 -770 -5 -849 -4 -912 12 l-70 17 0 224 0 224
834 0 c503 0 874 4 935 10 421 44 614 234 660 654 12 103 14 2411 2 2591 l-6
100 -452 3 -453 2 0 -1220 0 -1220 -1210 0 -1210 0 0 -1153 0 -1154 433 -6
c1443 -22 1889 -20 2367 14 544 38 957 209 1303 539 184 176 308 346 416 571
93 193 148 366 192 601 21 108 22 156 30 1063 4 523 11 969 15 993 l6 42 224
0 224 0 0 -782 c0 -823 7 -1002 40 -1133 69 -265 246 -444 485 -489 120 -22
657 -28 1813 -20 845 6 1006 9 1018 21 12 12 14 89 14 459 l0 444 -1220 0
-1220 0 0 1220 0 1220 -1160 0 -1160 0 0 -1357z"/>
<path d="M6215 4880 c-601 -26 -828 -64 -1115 -188 -222 -95 -392 -208 -563
-372 -186 -178 -309 -347 -416 -571 -93 -193 -148 -366 -192 -601 -21 -108
-22 -156 -30 -1063 -4 -522 -11 -969 -15 -992 l-6 -43 -224 0 -224 0 0 783 c0
822 -7 1001 -40 1132 -69 265 -246 444 -485 489 -120 22 -657 28 -1813 20
-845 -6 -1006 -9 -1018 -21 -12 -12 -14 -89 -14 -459 l0 -444 1220 0 1220 0 0
-1220 0 -1220 1160 0 1160 0 0 1358 c0 924 4 1386 11 1447 68 556 427 930 979
1021 91 14 215 17 948 21 770 5 849 4 912 -12 l70 -17 0 -224 0 -224 -834 0
c-503 0 -874 -4 -935 -10 -421 -44 -614 -234 -660 -654 -12 -103 -14 -2411 -2
-2591 l6 -100 453 -3 452 -2 0 1220 0 1220 1210 0 1210 0 0 1153 0 1154 -422
6 c-757 12 -1798 16 -2003 7z"/>
</g>
</svg>
